<svg xmlns="http://www.w3.org/2000/svg" viewBox="0 0 467.78 154.14"><defs><style>.cls-1{fill:#f7931e;}</style></defs><g id="Layer_2" data-name="Layer 2"><g id="Layer_1-2" data-name="Layer 1"><path d="M124.92,151.85H103.84V126.48c0-6.82.11-13.64,0-20.45-.25-10.75-4.64-15.55-14.58-16.28-8-.59-14.66,4.93-15.3,14.44-.86,13-.59,26-.78,39,0,2.66,0,5.32,0,8.46H51.94c-.1-2.16-.29-4.33-.29-6.5,0-13,.14-26-.09-39-.19-10.84-4.69-15.67-14.51-16.37-8.15-.58-14.32,4.46-15.32,14.42-1.06,10.44-.69,21-.87,31.54-.09,5.15,0,10.31,0,15.93H0v-78H20.59c.17,1.94.33,3.72.54,6.23C37.23,69,52.54,69.12,67.43,82.32,77.21,73,89,70.25,102.11,73.07c13.31,2.86,21.78,11,22.55,24.4C125.69,115.34,124.92,133.31,124.92,151.85Z"/><path d="M224,135.68c-13.82,18.9-39.65,23.88-60.34,12.12-17.55-10-24.56-32.43-16.17-51.85,8-18.45,31.68-28.1,53.11-21.62,19.86,6,31,24.92,26.89,46.77H166.16c1,6.28,4.55,9.55,9.23,11.57,10.32,4.46,20.21,3.65,29-3.67,2.44-2,4.23-2.51,7-.72C215.31,130.88,219.51,133.1,224,135.68Zm-57.43-29.87h38.65c-1.53-9.07-8.37-14.59-17.94-14.88C176.61,90.61,168.94,95.79,166.52,105.81Z"/><path class="cls-1" d="M415.87,0h51.91V87.21H435.13c0-13.2.19-26-.15-38.76-.07-2.75-1.73-5.62-3.2-8.12a16.55,16.55,0,0,0-4.72-4.86C414.48,26.71,412.82,14.39,415.87,0Z"/><path d="M367.27,83.86l-9.91,12.91c-7.5-2.14-14.26-4.56-21.23-5.86-4.61-.86-11-.59-11.8,5-.79,5.9,5.94,5.74,10,6.81,6.37,1.67,13,2.27,19.32,4.19,11.23,3.44,16.27,10.3,16.57,21.19.3,10.65-5.58,19.76-16.2,23.13-19,6-36.58,2.29-53.45-9.44L310.88,128c8,2.42,15.3,5,22.83,6.73,3.21.72,7.06.07,10.24-1,1.88-.66,4.12-3.43,4.14-5.28,0-1.59-2.59-4.11-4.49-4.67-5.12-1.51-10.53-2-15.74-3.25a73,73,0,0,1-12.92-4.1c-7.71-3.51-12.27-9.55-12.66-18.29-.42-9.3,3.26-16.38,11.37-21.11C328.58,68.26,353.68,71.32,367.27,83.86Z"/><path d="M287.34,135.7v17.67c-9.41,1-18.79,1.75-27.68-2.43-5.83-2.74-8.08-8.06-8.15-14.24-.16-12.8-.16-25.6-.22-38.4,0-2.24,0-4.48,0-7.18L242,90.47v-18l9.07-.63V51.4h21.26V71.93h15.79V90.37h-15c0,13.25-.63,26,.24,38.59C273.89,136.57,281.09,135.48,287.34,135.7Z"/><path d="M388,44.15h20.71V151.69H388Z"/></g></g></svg>